<svg xmlns="http://www.w3.org/2000/svg" xmlns:xlink="http://www.w3.org/1999/xlink" width="500" zoomAndPan="magnify" viewBox="0 0 375 374.999991" height="500" preserveAspectRatio="xMidYMid meet" version="1.0"><path fill="#ed5f80" d="M 27.625 135.78125 C 27.757812 133.988281 27.90625 132.089844 28.058594 130.304688 C 27.898438 132.089844 27.75 133.988281 27.625 135.78125 Z M 29.171875 192.296875 C 30.4375 197.515625 31.46875 202.761719 32.066406 205 C 31.511719 202.765625 30.46875 197.492188 29.171875 192.296875 Z M 34.636719 68.644531 C 37.1875 64.644531 43.898438 56.859375 47.15625 54.003906 C 42.285156 58.488281 37.644531 64.160156 34.636719 68.644531 Z M 34.859375 207.816406 C 36.078125 207.546875 37.953125 206.816406 40.324219 206.191406 C 37.953125 206.800781 36.078125 207.519531 34.859375 207.816406 Z M 42.425781 282.714844 C 44.878906 284.734375 47.664062 286.527344 50.578125 287.878906 C 47.699219 286.539062 44.878906 284.722656 42.425781 282.714844 Z M 51.347656 288.191406 C 51.847656 288.410156 52.578125 288.6875 53.089844 288.871094 C 52.578125 288.6875 51.863281 288.410156 51.347656 288.191406 Z M 58.070312 180.828125 C 58.921875 178.570312 62.105469 171.722656 63.429688 169.367188 C 61.121094 173.640625 59.183594 178.007812 58.066406 180.828125 Z M 61.503906 238.78125 C 60.761719 257.667969 65.332031 279.222656 70.660156 291.296875 C 64.464844 276.269531 61.074219 258.289062 61.503906 238.78125 Z M 62.25 203.960938 C 62.414062 201.378906 64.238281 194.171875 65.140625 191.515625 C 63.644531 196.238281 62.589844 200.753906 62.25 203.960938 Z M 66.003906 218.757812 C 66.078125 220.382812 66.289062 222.652344 66.109375 224.15625 C 66.359375 222.421875 66.109375 220.605469 66.003906 218.757812 Z M 75.011719 155.625 C 75.945312 155.273438 77.0625 155.160156 78.046875 155.410156 C 77.125 155.140625 75.925781 155.265625 75.011719 155.625 Z M 90.671875 49.789062 C 84.21875 55.835938 78.011719 62.277344 72.566406 69.226562 C 85.441406 53.757812 99.671875 40.808594 116.160156 30.589844 C 107.050781 36.042969 98.398438 42.464844 90.664062 49.796875 Z M 176.875 7.507812 C 175.003906 7.90625 173.074219 8.328125 171.304688 8.734375 C 173.074219 8.332031 175.003906 7.910156 176.875 7.507812 Z M 164.710938 10.304688 C 165.804688 10.03125 166.953125 9.753906 168.070312 9.484375 C 167.019531 9.730469 165.777344 10.03125 164.710938 10.304688 Z M 171.683594 49.363281 C 171.609375 49.105469 171.476562 48.566406 171.425781 48.332031 C 171.480469 48.632812 171.703125 49.546875 171.777344 49.6875 C 171.738281 49.5625 171.710938 49.453125 171.683594 49.363281 Z M 183.148438 37.558594 C 182.863281 38.199219 182.800781 39.03125 183.121094 39.675781 C 182.851562 39.070312 182.921875 38.199219 183.148438 37.566406 Z M 183.535156 40.242188 C 184.066406 40.710938 184.898438 40.796875 185.582031 40.597656 C 184.960938 40.722656 184.050781 40.695312 183.535156 40.242188 Z M 205.632812 298.609375 C 206.078125 298.902344 206.75 299.25 207.234375 299.433594 C 206.753906 299.238281 206.078125 298.894531 205.632812 298.609375 Z M 204.140625 297.449219 C 204.542969 297.832031 205.160156 298.316406 205.625 298.605469 C 205.164062 298.304688 204.5625 297.835938 204.140625 297.449219 Z M 203.394531 368.617188 C 204.53125 368.363281 205.753906 368.085938 206.898438 367.800781 C 205.816406 368.0625 204.503906 368.371094 203.394531 368.617188 Z M 252.835938 162.128906 C 255.632812 162.292969 258.539062 162.484375 261.347656 162.683594 C 258.554688 162.476562 255.625 162.289062 252.835938 162.128906 Z M 265.429688 322.378906 C 266.101562 321.609375 266.832031 320.765625 267.492188 319.964844 C 266.871094 320.71875 266.089844 321.625 265.429688 322.378906 Z M 274.070312 210.398438 C 273.558594 210.347656 272.84375 210.261719 272.347656 210.167969 C 272.839844 210.277344 273.558594 210.351562 274.070312 210.398438 Z M 265.417969 163.011719 C 269.175781 163.316406 275.0625 163.902344 277.824219 164.203125 C 273.722656 163.753906 269.550781 163.359375 265.417969 163.011719 Z M 279.65625 226.804688 C 279.78125 226.359375 280.117188 225.757812 280.417969 225.441406 C 280.105469 225.757812 279.773438 226.359375 279.65625 226.804688 Z M 280.441406 300.285156 C 281.101562 299 281.816406 297.539062 282.417969 296.222656 C 281.820312 297.511719 281.097656 298.992188 280.441406 300.285156 Z M 281.792969 70.65625 C 281.902344 71.003906 282.15625 71.332031 282.578125 71.566406 C 282.167969 71.304688 281.90625 70.980469 281.792969 70.65625 Z M 282.082031 69.53125 C 282.3125 69.332031 282.652344 69.183594 283.113281 69.121094 C 282.660156 69.164062 282.3125 69.316406 282.082031 69.53125 Z M 287.457031 224.230469 C 287.839844 224.332031 288.140625 224.257812 288.375 224.046875 C 288.136719 224.230469 287.832031 224.296875 287.457031 224.230469 Z M 288.945312 213.359375 C 288.726562 214.859375 289.007812 216.558594 289.097656 218.109375 C 289.054688 216.785156 288.800781 214.570312 288.949219 213.359375 Z M 294.332031 56.636719 C 294.691406 56.964844 294.894531 57.511719 294.507812 57.882812 C 294.929688 57.496094 294.683594 56.960938 294.332031 56.636719 Z M 324.132812 269.257812 C 324.566406 268.523438 325.078125 267.613281 325.472656 266.878906 C 325.074219 267.613281 324.566406 268.523438 324.132812 269.257812 Z M 326.527344 68.5625 C 326.78125 68.324219 327.003906 68.039062 327.1875 67.726562 C 327 68.035156 326.777344 68.3125 326.527344 68.5625 Z M 330.753906 218.4375 C 330.734375 218.605469 330.738281 218.742188 330.742188 218.667969 C 331.035156 217.234375 331.734375 215.75 332.152344 214.351562 C 331.722656 215.640625 331.152344 217.117188 330.753906 218.445312 Z M 334.210938 208.441406 C 334.566406 207.347656 334.945312 206.179688 335.273438 205.066406 C 334.957031 206.117188 334.558594 207.375 334.210938 208.441406 Z M 350.644531 107.308594 C 351.300781 108.078125 351.996094 108.933594 352.628906 109.742188 C 352.042969 108.976562 351.296875 108.058594 350.644531 107.308594 Z M 354.242188 111.914062 C 354.765625 112.652344 355.363281 113.542969 355.867188 114.324219 C 355.40625 113.605469 354.742188 112.621094 354.242188 111.914062 Z M 354.242188 111.914062 " fill-opacity="1" fill-rule="nonzero"/><path fill="#ed5f80" d="M 55.414062 277.445312 C 55.457031 277.277344 55.472656 277.097656 55.484375 276.898438 C 55.472656 277.089844 55.449219 277.277344 55.414062 277.445312 Z M 55.414062 277.445312 " fill-opacity="1" fill-rule="nonzero"/><path fill="#ed5f80" d="M 156.589844 12.535156 C 156.984375 12.414062 157.394531 12.289062 157.832031 12.15625 C 157.394531 12.285156 156.984375 12.410156 156.589844 12.535156 Z M 156.589844 12.535156 " fill-opacity="1" fill-rule="nonzero"/><path fill="#ed5f80" d="M 201.476562 294.199219 C 201.722656 294.574219 201.972656 294.933594 202.222656 295.269531 C 201.980469 294.933594 201.726562 294.574219 201.476562 294.199219 Z M 201.476562 294.199219 " fill-opacity="1" fill-rule="nonzero"/><path fill="#ed5f80" d="M 202.222656 295.277344 C 202.476562 295.613281 202.726562 295.933594 202.980469 296.230469 C 202.730469 295.933594 202.480469 295.613281 202.222656 295.277344 Z M 202.222656 295.277344 " fill-opacity="1" fill-rule="nonzero"/><path fill="#ed5f80" d="M 324.421875 207.0625 C 324.492188 206.890625 324.546875 206.710938 324.613281 206.503906 C 324.546875 206.710938 324.484375 206.890625 324.421875 207.0625 Z M 324.421875 207.0625 " fill-opacity="1" fill-rule="nonzero"/><path fill="#ed5f80" d="M 324.855469 205.574219 C 324.925781 205.285156 324.988281 204.972656 325.042969 204.636719 C 324.980469 204.972656 324.917969 205.285156 324.855469 205.574219 Z M 324.855469 205.574219 " fill-opacity="1" fill-rule="nonzero"/><path fill="#ed5f80" d="M 328.042969 119.363281 C 328.082031 119.253906 328.132812 119.152344 328.191406 119.058594 C 328.121094 119.152344 328.078125 119.253906 328.042969 119.363281 Z M 328.042969 119.363281 " fill-opacity="1" fill-rule="nonzero"/><path fill="#ed5f80" d="M 327.960938 119.789062 C 327.945312 119.960938 327.949219 120.148438 327.972656 120.34375 C 327.957031 120.148438 327.949219 119.960938 327.960938 119.789062 Z M 327.960938 119.789062 " fill-opacity="1" fill-rule="nonzero"/><path fill="#ed5f80" d="M 359.65625 122.125 C 348.019531 93.246094 314.875 82.105469 287.539062 73.140625 C 285.90625 72.371094 282.746094 72.308594 282.050781 70.460938 C 281.890625 69.511719 283.222656 69.128906 284.039062 69.089844 C 290.746094 68.683594 297.414062 68.121094 304.097656 68.617188 C 310.960938 69.03125 318.828125 72.007812 325.390625 69.320312 C 336.738281 61.726562 304.164062 49.675781 298.992188 47.316406 C 263.445312 32.003906 223.152344 30.738281 185.925781 40.484375 C 177.695312 41.257812 189.75 26.679688 191.949219 25.328125 C 199.289062 18.847656 208.847656 16.261719 217.785156 12.96875 C 222.1875 11.378906 225.957031 8.320312 222.058594 3.800781 C 218.296875 1.386719 210.402344 2.417969 204.140625 2.917969 C 144.785156 8.914062 96.742188 33.695312 62.128906 82.53125 C 54.617188 75.464844 67.054688 47.5 56.4375 48.417969 C 48.097656 50.382812 39.6875 61.90625 35.261719 67.847656 C 12.03125 109.597656 10.746094 172.570312 25.609375 217.402344 C 26.109375 219.902344 25.015625 221.824219 24.308594 224.167969 C 22.148438 233.757812 21.863281 243.835938 24.445312 253.324219 C 29.320312 268.832031 39.253906 285.242188 55.941406 289.714844 C 58.492188 290.039062 60.460938 291.625 61.234375 294.097656 C 98.671875 389.328125 241.042969 397.398438 288.351562 306.476562 C 290.59375 302.441406 292.632812 298.304688 294.546875 294.097656 C 295.613281 290.996094 297.441406 289.917969 300.492188 289.371094 C 317.3125 284.597656 327.050781 267.75 331.785156 251.921875 C 336.789062 240.285156 331.175781 230.214844 330.886719 218.488281 C 342.753906 188.285156 342.222656 152.15625 328.453125 122.652344 C 327.359375 119.144531 328.652344 117.601562 332.15625 119.140625 C 338.25 121.679688 344.300781 124.292969 350.378906 126.914062 C 354.382812 129.382812 360.105469 127.433594 359.644531 122.125 Z M 55.210938 276.867188 C 55.222656 277.941406 54.378906 278.761719 53.328125 278.425781 C 36.75 265.863281 27.128906 239.925781 37.496094 220.183594 C 39.148438 217.367188 41.792969 215.6875 45.078125 215.332031 C 50.136719 214.074219 51.5 215.652344 51.261719 220.84375 C 51.085938 224.050781 51.757812 234.238281 50.71875 238.734375 C 51.644531 251.535156 52.183594 264.449219 55.210938 276.867188 Z M 293.511719 253.226562 C 280.246094 411.035156 42.488281 383.867188 63.867188 231.523438 C 69.46875 230.785156 68.535156 236.820312 69.246094 240.535156 C 70.992188 254.105469 72.296875 267.6875 74.460938 281.210938 C 76.070312 290.785156 83.523438 296.09375 92.625 297.578125 C 107.195312 300.75 121.796875 303.78125 136.378906 306.875 C 160.683594 313.53125 163.84375 289.902344 170.542969 273.117188 C 171.488281 271.949219 177.386719 251.511719 178.253906 256.675781 C 185.804688 271.539062 189.679688 306.34375 208.835938 308.105469 C 224.21875 306.738281 239.207031 301.898438 254.453125 299.238281 C 269.824219 297.191406 281 291.941406 281.519531 274.765625 C 283.222656 262.449219 284.378906 250.074219 286.089844 237.753906 C 286.460938 231.40625 286.917969 232.394531 292.660156 231.097656 C 293.4375 230.863281 294.074219 231.238281 294.0625 232.128906 C 294.332031 239.484375 294.132812 246.371094 293.511719 253.234375 Z M 280.082031 166.375 C 288.546875 177.039062 291.257812 190.71875 293.304688 203.859375 C 293.417969 204.839844 292.910156 205.058594 291.914062 204.898438 C 215.617188 194.359375 139.664062 194.347656 63.441406 204.753906 C 57.210938 206.378906 74.453125 159.398438 85.011719 161.78125 C 143.328125 163.804688 202.34375 158.425781 260.699219 162.570312 C 265.5625 163.578125 277.761719 162.15625 280.082031 166.382812 Z M 202.277344 295.304688 C 194.460938 282.699219 191.109375 267.902344 185.570312 254.132812 C 183.84375 247.984375 177.496094 244.632812 172.347656 249.289062 C 164.734375 262.398438 161.171875 277.929688 155.175781 291.941406 C 152.960938 298.199219 146.878906 301.402344 140.445312 299.613281 C 70.667969 283.742188 85.480469 300.839844 75.710938 229.742188 C 75.179688 221.175781 69.3125 225.859375 66.222656 223.460938 C 66.488281 219.8125 63.96875 212.152344 68.835938 211.71875 C 140.496094 202.347656 212.835938 203.023438 284.5625 211.320312 C 287.800781 211.855469 289.492188 212.75 289.03125 216.246094 C 288.972656 219.140625 290.398438 224.503906 286.796875 224.179688 C 282.710938 223.914062 279.597656 224.390625 279.394531 228.898438 C 277.054688 246.171875 275.273438 263.566406 272.746094 280.8125 C 271.578125 285.484375 267.207031 288.738281 262.378906 289.554688 C 251.90625 291.289062 241.914062 293.441406 231.617188 296.109375 C 222.007812 297.777344 209.789062 304.921875 202.285156 295.3125 Z M 308.152344 273.558594 C 301.445312 281.152344 298.148438 279.300781 301.832031 269.679688 C 305.808594 253.414062 304.367188 236.589844 304.21875 220.007812 C 303.734375 215.792969 305.753906 214.675781 309.65625 215.230469 C 319.648438 215.75 322.578125 226.410156 322.78125 234.808594 C 324.578125 249.429688 317.152344 262.589844 308.152344 273.558594 Z M 332.613281 109.375 C 328.167969 107.855469 315.046875 105.210938 311.03125 107.621094 C 307.929688 110.253906 308.925781 113.707031 311.691406 116.113281 C 332.738281 139.84375 330.847656 177.253906 324.84375 206.480469 C 323.574219 211.90625 319.207031 207.050781 316.171875 206.238281 C 311.242188 203.238281 303.507812 208.304688 303.238281 200.03125 C 300.550781 184.070312 293.964844 168.214844 282.699219 156.527344 C 213.78125 154.003906 143.230469 155.636719 74.15625 156.03125 C 66.476562 160.410156 60.335938 174.605469 57.234375 182.648438 C 55 189.292969 53.59375 196.222656 51.636719 202.988281 C 51.117188 205.199219 48.652344 204.921875 46.882812 205.101562 C 29.804688 207.773438 33.554688 212.648438 29.140625 193.574219 C 24.691406 158.332031 22.96875 96.988281 47.765625 69.515625 C 48.144531 69.488281 48.453125 69.867188 48.617188 70.449219 C 49.015625 79.929688 51.335938 89.390625 57.582031 96.777344 C 62.476562 103.160156 67.117188 95.890625 69.625 91.496094 C 93.585938 50.992188 137.792969 22.878906 184.164062 17.007812 C 186.96875 16.671875 175.5625 27.882812 175.378906 29.855469 C 170.238281 40.425781 166.585938 58.75 184.546875 50.71875 C 217.179688 42.75 251.824219 42.382812 284.136719 52.355469 C 290.597656 53.871094 301.769531 58.675781 288.042969 58.976562 C 280.128906 57.867188 237.160156 66.917969 260.421875 76.832031 C 286.699219 83.832031 316.597656 88.652344 336.476562 108.738281 C 337.199219 109.757812 333.175781 109.695312 332.625 109.371094 Z M 332.613281 109.375 " fill-opacity="1" fill-rule="nonzero"/><path fill="#ed5f80" d="M 101.855469 311.628906 C 138.8125 352.566406 202.222656 346.917969 246.3125 321.515625 C 208.480469 354.929688 134.261719 354.863281 101.242188 314.636719 C 98.691406 311.167969 97.207031 314.621094 93.925781 314.324219 C 89.074219 312.894531 101.78125 306.914062 103.164062 305.757812 C 104.058594 305 107.375 304.019531 107.84375 305.398438 C 106.878906 308.25 103.328125 309.25 101.859375 311.628906 Z M 101.855469 311.628906 " fill-opacity="1" fill-rule="nonzero"/><path fill="#ed5f80" d="M 178.191406 212.199219 C 205.277344 213.167969 232.566406 214.507812 259.597656 217.152344 C 263.023438 217.351562 266.523438 218.773438 268.609375 221.523438 C 274.542969 228.085938 266.550781 256.304688 266.449219 266.695312 C 266.039062 272.429688 264.8125 279.3125 258.890625 281.785156 C 246.132812 285.261719 232.984375 287.367188 220.0625 290.238281 C 212.96875 292.25 206.6875 288.210938 204.394531 281.417969 C 200.777344 271.378906 197.03125 261.472656 193.28125 251.507812 C 189.304688 236.683594 167.859375 234.4375 162.515625 249.503906 C 158.355469 260.550781 154.230469 271.597656 150.09375 282.648438 C 148.492188 287.617188 143.46875 291.144531 138.242188 290.957031 C 124.839844 288.636719 111.578125 285.359375 98.261719 282.511719 C 93.835938 281.449219 90.695312 278.171875 89.550781 273.738281 C 87.125 260.175781 86.199219 246.332031 84.230469 232.671875 C 83.609375 228.804688 84.039062 224.269531 86.601562 221.3125 C 88.808594 218.542969 92.644531 217.292969 96.183594 217.035156 C 123.390625 214.003906 150.960938 213.492188 178.195312 212.191406 Z M 178.09375 219.714844 C 149.789062 221.277344 122.484375 221.726562 94.671875 225.113281 C 91.703125 225.84375 91.5 228.910156 91.949219 231.421875 C 100.800781 285.09375 84.070312 270.320312 137.894531 282.910156 C 149.558594 284.988281 147.554688 226.332031 180.414062 231.332031 C 204.207031 235.230469 203.410156 264.3125 213.023438 281.148438 C 214.402344 283.28125 217.035156 282.871094 219.191406 282.390625 C 231.59375 279.0625 245.300781 278.355469 257.015625 273.5 C 260.75 259.851562 260.945312 244.921875 263.082031 230.824219 C 263.429688 228.464844 263.195312 225.71875 260.367188 225.117188 C 233.195312 221.925781 205.074219 221.292969 178.09375 219.722656 Z M 178.09375 219.714844 " fill-opacity="1" fill-rule="nonzero"/><path fill="#ed5f80" d="M 134.132812 237.949219 C 130.476562 237.644531 124.570312 239.589844 120.828125 238.441406 C 117.144531 237.398438 116.773438 232.339844 120.707031 231.257812 C 129.1875 230.066406 137.816406 230.007812 146.375 229.425781 C 150.765625 229.003906 152.886719 234.253906 148.988281 236.640625 C 144.222656 238.03125 139.054688 237.519531 134.140625 237.949219 Z M 134.132812 237.949219 " fill-opacity="1" fill-rule="nonzero"/><path fill="#ed5f80" d="M 105.867188 232.464844 C 110.511719 232.203125 110.996094 239.65625 106.523438 240.214844 C 101.039062 241.035156 100.566406 232.425781 105.867188 232.464844 Z M 105.867188 232.464844 " fill-opacity="1" fill-rule="nonzero"/></svg>